<svg xmlns="http://www.w3.org/2000/svg" viewBox="0 0 100 100">
  <!-- Main leaf body -->
  <path d="M38 10
    C28 14 16 28 16 46
    C16 62 28 76 46 80
    C50 72 52 60 50 46
    C48 32 44 18 38 10Z"
    fill="#2d6e35"/>
  <path d="M38 10
    C46 12 62 22 70 38
    C76 52 72 68 58 76
    C62 70 66 58 64 46
    C62 32 52 18 38 10Z"
    fill="#2d6e35"/>
  <!-- Merge into one clean leaf -->
  <path d="M38 10
    C50 8 72 20 74 44
    C76 64 60 80 46 80
    C30 78 16 64 16 46
    C16 26 28 12 38 10Z"
    fill="#3a8040"/>
  <!-- Dark overlay on left for depth -->
  <path d="M38 10
    C30 16 18 30 18 46
    C18 60 26 72 38 78
    C28 72 18 60 18 46
    C18 28 28 14 38 10Z"
    fill="#1e5228" opacity="0.6"/>
  <!-- Highlight curve -->
  <path d="M52 20 C64 30 70 48 62 66"
    stroke="#5aaa5a" stroke-width="5" stroke-linecap="round" fill="none" opacity="0.5"/>
  <!-- Stem -->
  <path d="M46 80 C47 86 50 91 53 96"
    stroke="#7a4820" stroke-width="6" stroke-linecap="round" fill="none"/>
</svg>
